HIERARCHY
ROOT SpineBase
{
  OFFSET 0.000000 0.000000 0.000000
  CHANNELS 6 Xposition Yposition Zposition Zrotation Xrotation Yrotation
  JOINT SpineMid
  {
    OFFSET 0.000000 28.536344 0.000000
    CHANNELS 3 Zrotation Xrotation Yrotation
    JOINT SpineShoulder
    {
      OFFSET -0.045731 21.247150 -0.663454
      CHANNELS 3 Zrotation Xrotation Yrotation
      JOINT Neck
      {
        OFFSET -0.037955 7.060603 -0.491748
        CHANNELS 3 Zrotation Xrotation Yrotation
        JOINT Head
        {
          OFFSET 0.453661 12.647055 1.797440
          CHANNELS 3 Zrotation Xrotation Yrotation
          End Site
          {
            OFFSET 0 0 0
          }
        }
      }
      JOINT ShoulderLeft
      {
        OFFSET -11.790658 -3.373803 -8.326280
        CHANNELS 3 Zrotation Xrotation Yrotation
        JOINT ElbowLeft
        {
          OFFSET -3.701128 -21.926824 -3.382604
          CHANNELS 3 Zrotation Xrotation Yrotation
          JOINT WristLeft
          {
            OFFSET 4.509612 -21.087943 -6.531908
            CHANNELS 3 Zrotation Xrotation Yrotation
            JOINT HandLeft
            {
              OFFSET -0.145682 -5.127274 -0.194869
              CHANNELS 3 Zrotation Xrotation Yrotation
              JOINT HandTipLeft
              {
                OFFSET 0.941473 -5.678835 -0.653918
                CHANNELS 3 Zrotation Xrotation Yrotation
                End Site
                {
                  OFFSET 0 0 0
                }
              }
              JOINT ThumbLeft
              {
                OFFSET 2.760058 1.203278 0.777536
                CHANNELS 3 Zrotation Xrotation Yrotation
                End Site
                {
                  OFFSET 0 0 0
                }
              }
            }
          }
        }
      }
      JOINT ShoulderRight
      {
        OFFSET 11.708184 -3.664746 5.314744
        CHANNELS 3 Zrotation Xrotation Yrotation
        JOINT ElbowRight
        {
          OFFSET 2.198284 -21.954043 1.494393
          CHANNELS 3 Zrotation Xrotation Yrotation
          JOINT WristRight
          {
            OFFSET 3.396242 -21.746214 -3.965175
            CHANNELS 3 Zrotation Xrotation Yrotation
            JOINT HandRight
            {
              OFFSET 0.486617 -5.008144 0.111617
              CHANNELS 3 Zrotation Xrotation Yrotation
              JOINT HandTipRight
              {
                OFFSET 0.383581 -5.753185 -1.427606
                CHANNELS 3 Zrotation Xrotation Yrotation
                End Site
                {
                  OFFSET 0 0 0
                }
              }
              JOINT ThumbRight
              {
                OFFSET 1.136883 -1.225853 -2.167863
                CHANNELS 3 Zrotation Xrotation Yrotation
                End Site
                {
                  OFFSET 0 0 0
                }
              }
            }
          }
        }
      }
    }
  }
  JOINT HipLeft
  {
    OFFSET -4.991816 1.433471 -5.187822
    CHANNELS 3 Zrotation Xrotation Yrotation
    JOINT KneeLeft
    {
      OFFSET -8.153305 -32.496583 1.552464
      CHANNELS 3 Zrotation Xrotation Yrotation
      JOINT AnkleLeft
      {
        OFFSET 1.242539 -32.048329 2.999167
        CHANNELS 3 Zrotation Xrotation Yrotation
        JOINT FootLeft
        {
          OFFSET 4.660314 -4.483201 -3.067540
          CHANNELS 3 Zrotation Xrotation Yrotation
          End Site
          {
            OFFSET 0 0 0
          }
        }
      }
    }
  }
  JOINT HipRight
  {
    OFFSET 4.584692 0.364175 -0.873511
    CHANNELS 3 Zrotation Xrotation Yrotation
    JOINT KneeRight
    {
      OFFSET -5.017630 -33.395110 1.128742
      CHANNELS 3 Zrotation Xrotation Yrotation
      JOINT AnkleRight
      {
        OFFSET 0.479033 -28.258232 4.864114
        CHANNELS 3 Zrotation Xrotation Yrotation
        JOINT FootRight
        {
          OFFSET -2.569356 -5.022046 -6.330130
          CHANNELS 3 Zrotation Xrotation Yrotation
          End Site
          {
            OFFSET 0 0 0
          }
        }
      }
    }
  }
}
MOTION
Frames: 10
Frame Time: 0.033333
6.136619 43.152032 376.226035 -10.006607 -14.767262 -31.845716 0.273494 0.255939 30.177395 0.405410 0.036175 -0.428564 -22.271577 19.722766 12.987585 0.000000 0.000000 0.000000 18.604417 29.103471 -7.835482 13.809091 -24.914529 1.711717 20.671348 13.686972 0.001401 6.489532 23.357596 -9.361807 0.000000 0.000000 0.000000 0.000000 0.000000 0.000000 2.475109 7.958575 -0.295811 -16.641206 42.433836 19.946549 -10.387869 37.248788 3.392429 38.860594 -5.390881 20.839898 0.000000 0.000000 0.000000 0.000000 0.000000 0.000000 117.396637 68.350701 -86.527715 -95.980215 -46.665953 -45.643429 -15.487860 -24.341067 -17.593546 0.000000 0.000000 0.000000 170.606902 69.440139 -150.420548 -98.914165 -63.375212 -65.393056 15.517009 -0.781865 -11.173438 0.000000 0.000000 0.000000
5.196955 42.378151 378.282473 -9.374590 -14.400236 -32.328286 0.282636 0.671752 30.800218 0.311806 0.235164 -0.371588 -20.584803 17.993382 11.424581 0.000000 0.000000 0.000000 19.200159 29.933224 -8.723892 13.688020 -24.415390 2.733558 19.917992 12.803203 0.510454 6.730393 27.608771 -10.229953 0.000000 0.000000 0.000000 0.000000 0.000000 0.000000 4.514712 8.541534 -0.409807 -18.558690 41.798466 19.131637 -10.266130 34.217564 1.914696 43.459056 12.292321 21.720829 0.000000 0.000000 0.000000 0.000000 0.000000 0.000000 122.344073 69.732254 -93.986223 -95.291891 -50.764710 -46.810006 -6.022196 -20.095574 -15.423412 0.000000 0.000000 0.000000 173.461817 70.028828 -154.368928 -102.899092 -63.733106 -69.872234 19.811968 -1.335435 -14.987526 0.000000 0.000000 0.000000
3.889675 41.817753 379.550206 -9.230162 -13.126864 -31.842764 0.540123 0.946710 30.425768 0.238973 0.519644 -0.322222 -19.457114 16.483941 10.187918 0.000000 0.000000 0.000000 20.683442 29.469125 -9.598779 12.910340 -23.221967 3.473589 19.473638 11.325946 1.176074 7.066475 28.984536 -10.663696 0.000000 0.000000 0.000000 0.000000 0.000000 0.000000 7.584864 9.953365 -0.414432 -20.550860 40.100702 17.440431 -9.741293 30.763588 0.347174 43.298086 19.803601 20.266584 0.000000 0.000000 0.000000 0.000000 0.000000 0.000000 123.519686 69.603459 -95.282919 -94.688361 -53.636944 -46.804151 -1.199752 -20.625366 -20.190044 0.000000 0.000000 0.000000 170.364935 70.465932 -149.913497 -103.514356 -63.030979 -69.614908 28.731223 1.553340 -29.300138 0.000000 0.000000 0.000000
2.350966 41.521266 379.873997 -9.561470 -10.747079 -30.748374 0.719003 1.523638 29.513062 0.132218 0.680540 -0.291683 -16.384869 12.359065 7.807437 0.000000 0.000000 0.000000 23.183693 27.562861 -10.292256 12.414703 -21.085832 4.134607 17.489367 8.956681 2.598603 7.802975 32.443082 -11.747489 0.000000 0.000000 0.000000 0.000000 0.000000 0.000000 10.715435 10.190095 -0.222914 -21.991861 38.339784 15.553110 -7.315327 27.972645 -0.471258 33.236564 16.208128 16.487412 0.000000 0.000000 0.000000 0.000000 0.000000 0.000000 122.858373 67.707713 -92.008714 -96.103390 -54.706862 -47.050171 0.058540 -22.152920 -24.330895 0.000000 0.000000 0.000000 163.149730 70.603231 -139.157802 -104.522826 -61.342502 -68.575068 32.361479 4.562344 -36.385143 0.000000 0.000000 0.000000
0.938976 41.466335 378.819054 -10.228066 -7.130048 -28.689241 0.904749 2.316732 27.786747 0.253144 1.151896 -0.243483 -12.038098 6.453477 4.940939 0.000000 0.000000 0.000000 24.894521 23.034839 -9.546494 12.290808 -17.696654 4.141640 19.705282 4.077413 4.752057 4.566302 32.990858 -12.767804 0.000000 0.000000 0.000000 0.000000 0.000000 0.000000 13.712695 10.227474 0.502259 -22.764185 33.963582 12.357464 -4.691206 22.353327 -1.634777 30.588008 13.472511 12.957787 0.000000 0.000000 0.000000 0.000000 0.000000 0.000000 114.724213 66.702875 -79.639940 -95.083943 -54.624199 -45.330032 14.708564 -15.698795 -22.372338 0.000000 0.000000 0.000000 151.658709 69.602659 -121.690411 -106.210409 -58.391704 -66.839580 33.118498 7.378253 -39.212289 0.000000 0.000000 0.000000
0.031585 41.230042 378.179833 -10.272927 -3.456238 -26.523993 1.139390 2.394240 26.013990 -0.092315 0.903689 -0.255236 -6.865650 1.308201 2.948235 0.000000 0.000000 0.000000 27.933038 20.066608 -9.485848 11.130778 -14.378629 4.210028 20.800855 0.002836 7.033288 8.347320 33.106227 -15.813600 0.000000 0.000000 0.000000 0.000000 0.000000 0.000000 16.189360 10.383232 1.198336 -23.400237 31.119705 10.057858 -8.807342 29.493583 -0.240804 32.889461 7.191826 16.742145 0.000000 0.000000 0.000000 0.000000 0.000000 0.000000 108.697579 64.113493 -68.940516 -95.569916 -53.668327 -44.000215 23.771256 0.251421 -12.336059 0.000000 0.000000 0.000000 143.574723 68.367898 -109.122570 -106.646306 -56.233202 -64.983337 27.576273 7.830864 -32.632466 0.000000 0.000000 0.000000
-0.609173 40.974831 377.647366 -9.943303 -0.312633 -23.498936 1.177689 2.309869 23.340238 -0.083176 0.758150 -0.251261 -2.652798 -2.572738 1.797709 0.000000 0.000000 0.000000 31.364746 18.732976 -10.054292 7.412017 -14.771216 5.009505 23.333604 6.821115 3.491824 2.019507 27.653307 -10.912547 0.000000 0.000000 0.000000 0.000000 0.000000 0.000000 17.629357 9.215255 1.864540 -23.623442 30.185243 8.696300 -11.657866 33.139723 0.492325 34.509668 4.936115 19.003113 0.000000 0.000000 0.000000 0.000000 0.000000 0.000000 104.657453 59.579076 -59.755322 -96.911424 -51.336428 -42.576909 23.798988 18.667149 0.874252 0.000000 0.000000 0.000000 135.827009 66.720543 -98.230284 -106.382084 -55.172352 -63.358104 20.455122 10.759302 -25.791769 0.000000 0.000000 0.000000
-1.021861 40.960489 377.499300 -9.471503 2.010783 -19.560854 1.151450 2.066097 19.634062 -0.044944 0.524795 -0.251364 1.147914 -4.470839 1.253425 0.000000 0.000000 0.000000 34.503303 18.711708 -10.962258 5.451468 -16.955122 6.040418 23.991370 16.962150 -1.760847 -8.913720 18.349844 -4.868493 0.000000 0.000000 0.000000 0.000000 0.000000 0.000000 18.172063 7.133968 2.333344 -23.377555 30.799522 8.339016 -14.014595 35.686540 1.014621 35.857580 4.747412 20.806356 0.000000 0.000000 0.000000 0.000000 0.000000 0.000000 101.120171 53.922569 -51.431831 -92.747629 -48.576771 -36.602815 18.520801 31.252580 12.639119 0.000000 0.000000 0.000000 131.637783 63.828001 -92.607390 -104.299168 -55.286744 -61.126635 16.592621 2.444936 -21.296083 0.000000 0.000000 0.000000
-1.289839 40.858515 377.814822 -8.815718 3.537921 -17.871564 0.888057 1.706330 18.055331 0.022843 0.218115 -0.253387 4.635748 -5.091661 0.970440 0.000000 0.000000 0.000000 37.400440 20.210416 -12.544626 4.162826 -18.350254 7.280814 21.570713 22.474338 -4.275309 -19.535393 2.018307 -1.342224 0.000000 0.000000 0.000000 0.000000 0.000000 0.000000 19.215409 6.499702 2.622754 -23.483476 31.015712 7.663230 -15.735996 37.112000 1.194803 38.509280 6.792896 22.752567 0.000000 0.000000 0.000000 0.000000 0.000000 0.000000 100.617856 50.835826 -47.732162 -91.784697 -47.229008 -33.948380 13.176663 36.995861 19.360435 0.000000 0.000000 0.000000 134.034630 62.384846 -95.798828 -101.005567 -56.790728 -58.699584 16.755764 -7.618605 -22.360959 0.000000 0.000000 0.000000
-1.352576 40.641772 378.558954 -7.902915 3.866319 -17.214205 0.676992 1.586966 17.399740 0.187353 -0.043644 -0.225940 6.632527 -5.087967 0.727607 0.000000 0.000000 0.000000 40.621047 22.105940 -14.915251 1.041850 -18.045744 7.992729 16.406874 22.478069 -3.607901 -27.413442 -10.412979 -1.869104 0.000000 0.000000 0.000000 0.000000 0.000000 0.000000 19.633985 6.319841 2.609460 -23.657393 31.551317 7.241757 -15.897269 39.722954 2.107439 42.079439 7.738704 25.085661 0.000000 0.000000 0.000000 0.000000 0.000000 0.000000 101.557628 49.458487 -47.888867 -92.632171 -46.906779 -33.671310 6.149709 43.154131 28.895523 0.000000 0.000000 0.000000 140.494432 61.011789 -105.604958 -96.364289 -61.195736 -55.438074 16.837137 -12.560030 -27.960532 0.000000 0.000000 0.000000
